<svg width="14" height="10" viewBox="0 0 14 10" fill="none" xmlns="http://www.w3.org/2000/svg">
<path id="vector (Stroke)" fill-rule="evenodd" clip-rule="evenodd" d="M9.09094 1.17146C9.49676 0.796851 10.1294 0.822154 10.504 1.22797L13.7348 4.72793C14.0884 5.11099 14.0884 5.70143 13.7348 6.08449L10.504 9.58453C10.1294 9.99036 9.49677 10.0157 9.09095 9.64106C8.68513 9.26646 8.65982 8.6338 9.03442 8.22798L10.716 6.40622L0.999999 6.40622C0.447714 6.40622 -7.64154e-07 5.9585 -7.86799e-07 5.40622C-8.09444e-07 4.85393 0.447714 4.40622 0.999999 4.40622L10.716 4.40622L9.03443 2.58454C8.65982 2.17872 8.68513 1.54606 9.09094 1.17146Z" fill="black"/>
</svg>
